<svg xmlns="http://www.w3.org/2000/svg" xmlns:xlink="http://www.w3.org/1999/xlink" version="1.1" x="0px" y="0px" viewBox="0 0 100 125" style="enable-background:new 0 0 100 100;" xml:space="preserve"><g><path d="M71.5720825,34.1923828c-5.9569702-5.9569702-15.6151123-5.9569702-21.5720825,0   c-5.9569702-5.9569702-15.6151123-5.9569702-21.5720825,0c-5.9569702,5.9570313-5.9569702,15.6151123,0,21.5720825   l17.1359863,17.1360474c2.4500122,2.4499512,6.4221802,2.4499512,8.8721924,0l17.1359863-17.1360474   C77.5290527,49.8074951,77.5290527,40.1494141,71.5720825,34.1923828z"/><path d="M50,17.4169922c1.1044922,0,2-0.8955078,2-2v-5.5c0-1.1044922-0.8955078-2-2-2s-2,0.8955078-2,2v5.5   C48,16.5214844,48.8955078,17.4169922,50,17.4169922z"/><path d="M76.9287109,20.2431641l-3.8886719,3.8886719c-0.78125,0.78125-0.78125,2.046875,0,2.828125   c0.390625,0.390625,0.9023438,0.5859375,1.4140625,0.5859375s1.0234375-0.1953125,1.4140625-0.5859375l3.8886719-3.8886719   c0.78125-0.78125,0.78125-2.046875,0-2.828125S77.7099609,19.4619141,76.9287109,20.2431641z"/><path d="M90.0830078,48h-5.5c-1.1044922,0-2,0.8955078-2,2s0.8955078,2,2,2h5.5c1.1044922,0,2-0.8955078,2-2   S91.1875,48,90.0830078,48z"/><path d="M75.8681641,73.0400391c-0.78125-0.78125-2.046875-0.78125-2.828125,0s-0.78125,2.046875,0,2.828125l3.8886719,3.8886719   c0.390625,0.390625,0.9023438,0.5859375,1.4140625,0.5859375s1.0234375-0.1953125,1.4140625-0.5859375   c0.78125-0.78125,0.78125-2.046875,0-2.828125L75.8681641,73.0400391z"/><path d="M50,82.5830078c-1.1044922,0-2,0.8955078-2,2v5.5c0,1.1044922,0.8955078,2,2,2s2-0.8955078,2-2v-5.5   C52,83.4785156,51.1044922,82.5830078,50,82.5830078z"/><path d="M24.1318359,73.0400391l-3.8886719,3.8886719c-0.78125,0.78125-0.78125,2.046875,0,2.828125   c0.390625,0.390625,0.9023438,0.5859375,1.4140625,0.5859375s1.0234375-0.1953125,1.4140625-0.5859375l3.8886719-3.8886719   c0.78125-0.78125,0.78125-2.046875,0-2.828125S24.9130859,72.2587891,24.1318359,73.0400391z"/><path d="M15.4169922,48h-5.5c-1.1044922,0-2,0.8955078-2,2s0.8955078,2,2,2h5.5c1.1044922,0,2-0.8955078,2-2   S16.5214844,48,15.4169922,48z"/><path d="M24.1318359,26.9599609c0.390625,0.390625,0.9023438,0.5859375,1.4140625,0.5859375   s1.0234375-0.1953125,1.4140625-0.5859375c0.78125-0.78125,0.78125-2.046875,0-2.828125l-3.8886719-3.8886719   c-0.78125-0.78125-2.046875-0.78125-2.828125,0s-0.78125,2.046875,0,2.828125L24.1318359,26.9599609z"/></g><text x="0" y="115" fill="#000000" font-size="5px" font-weight="bold" font-family="'Helvetica Neue', Helvetica, Arial-Unicode, Arial, Sans-serif">Created by Rudez Studio</text><text x="0" y="120" fill="#000000" font-size="5px" font-weight="bold" font-family="'Helvetica Neue', Helvetica, Arial-Unicode, Arial, Sans-serif">from the Noun Project</text></svg>