<svg xmlns="http://www.w3.org/2000/svg" xmlns:xlink="http://www.w3.org/1999/xlink" version="1.1" x="0px" y="0px" viewBox="0 0 1024 1280" style="enable-background:new 0 0 1024 1024;" xml:space="preserve"><g><g><g><path d="M873,805c0,2.8-0.2,5.6-0.6,8.3c0.4-2.7,0.7-5.3,1.1-8c-0.8,4.9-2.1,9.6-4,14.3c1-2.4,2-4.8,3-7.2     c-1.4,3.2-3,6.4-5,9.3c-4,6.1,4-4.5,0.8-0.8c-1.2,1.3-2.3,2.6-3.5,3.9c-1.2,1.2-2.6,2.4-3.9,3.5c-3.7,3.3,6.9-4.8,0.8-0.8     c-3,1.9-6.1,3.6-9.3,5c2.4-1,4.8-2,7.2-3c-4.6,1.9-9.3,3.2-14.3,4c2.7-0.4,5.3-0.7,8-1.1c-8.1,1.1-16.5,0.6-24.6,0.6     c-16,0-32.1,0-48.1,0c-53.3,0-106.6,0-160,0c-64.7,0-129.5,0-194.2,0c-55.7,0-111.4,0-167.1,0c-26.2,0-52.4,0.1-78.7,0     c-3,0-6-0.2-9-0.6c2.7,0.4,5.3,0.7,8,1.1c-4.9-0.8-9.6-2.1-14.3-4c2.4,1,4.8,2,7.2,3c-3.2-1.4-6.4-3-9.3-5c-6.1-4,4.5,4,0.8,0.8     c-1.3-1.2-2.6-2.3-3.9-3.5c-1.2-1.2-2.4-2.6-3.5-3.9c-3.3-3.7,4.8,6.9,0.8,0.8c-1.9-3-3.6-6.1-5-9.3c1,2.4,2,4.8,3,7.2     c-1.9-4.6-3.2-9.3-4-14.3c0.4,2.7,0.7,5.3,1.1,8c-0.8-6.1-0.6-12.4-0.6-18.5c0-10.5,0-21.1,0-31.6c0-35.5,0-70.9,0-106.4     c0-43.2,0-86.5,0-129.7c0-37.3,0-74.6,0-111.9c0-17.3-0.1-34.6,0-51.8c0-2.9,0.2-5.8,0.6-8.6c-0.4,2.7-0.7,5.3-1.1,8     c0.8-4.9,2.1-9.6,4-14.3c-1,2.4-2,4.8-3,7.2c1.4-3.2,3-6.4,5-9.3c4-6.1-4,4.5-0.8,0.8c1.2-1.3,2.3-2.6,3.5-3.9     c1.2-1.2,2.6-2.4,3.9-3.5c3.7-3.3-6.9,4.8-0.8,0.8c3-1.9,6.1-3.6,9.3-5c-2.4,1-4.8,2-7.2,3c4.6-1.9,9.3-3.2,14.3-4     c-2.7,0.4-5.3,0.7-8,1.1c8.1-1.1,16.5-0.6,24.6-0.6c16,0,32.1,0,48.1,0c53.3,0,106.6,0,160,0c64.7,0,129.5,0,194.2,0     c55.7,0,111.4,0,167.1,0c26.2,0,52.4-0.1,78.7,0c3,0,6,0.2,9,0.6c-2.7-0.4-5.3-0.7-8-1.1c4.9,0.8,9.6,2.1,14.3,4     c-2.4-1-4.8-2-7.2-3c3.2,1.4,6.4,3,9.3,5c6.1,4-4.5-4-0.8-0.8c1.3,1.2,2.6,2.3,3.9,3.5c1.2,1.2,2.4,2.6,3.5,3.9     c3.3,3.7-4.8-6.9-0.8-0.8c1.9,3,3.6,6.1,5,9.3c-1-2.4-2-4.8-3-7.2c1.9,4.6,3.2,9.3,4,14.3c-0.4-2.7-0.7-5.3-1.1-8     c0.8,6.1,0.6,12.2,0.6,18.4c0,10.4,0,20.8,0,31.2c0,34.9,0,69.8,0,104.6c0,43.1,0,86.1,0,129.2c0,37.1,0,74.3,0,111.4     c0,18.3-0.4,36.5,0,54.8C873,804.5,873,804.7,873,805c0,15.7,13.8,30.7,30,30c16.3-0.7,30-13.2,30-30c0-25.9,0-51.8,0-77.7     c0-55.3,0-110.5,0-165.8c0-50.8,0-101.5,0-152.3c0-13.5,0-27,0-40.5c0-1.9,0-3.8,0-5.7c-0.3-29.2-14.5-54.9-37.8-72.1     c-26.1-19.2-58.6-15.9-89-15.9c-41.7,0-83.4,0-125.1,0c-56.5,0-113.1,0-169.6,0c-56.2,0-112.3,0-168.5,0c-41.7,0-83.3,0-125,0     c-10.6,0-21.2,0-31.8,0c-2,0-3.9,0-5.9,0c-21.4,0.2-40.7,7.7-57.2,21c-19.9,16.1-30.9,41.6-31.2,67c0,2,0,4.1,0,6.1     c0,13.6,0,27.2,0,40.8c0,51.2,0,102.4,0,153.7c0,54.9,0,109.7,0,164.6c0,26.1-0.6,52.2,0,78.3c0.7,29.1,15.3,54.7,38.8,71.5     c14.3,10.2,32.3,15,49.6,15.1c6.6,0,13.1,0,19.7,0c35.8,0,71.7,0,107.5,0c54.3,0,108.6,0,163,0c57.7,0,115.4,0,173.1,0     c46.5,0,92.9,0,139.4,0c20.6,0,41.1,0.2,61.7,0c21.2-0.2,40.1-7.6,56.5-20.6c20.3-16.1,31.4-41.8,31.7-67.4     c0.2-15.7-13.9-30.7-30-30C886.6,775.7,873.2,788.2,873,805z"/></g></g><g><g><path d="M381,305c0-29.8,0-59.5,0-89.3c0-5.3-0.2-10.6,0.3-15.9c-0.4,2.7-0.7,5.3-1.1,8c0.6-4,1.6-7.9,3.1-11.6     c-1,2.4-2,4.8-3,7.2c1.1-2.4,2.3-4.8,3.7-7c1.8-2.7,3.8-3.1-1.6,1.9c0.9-0.9,1.7-2,2.6-2.9c0.4-0.4,2.7-2.8,2.9-2.7     c-0.1-0.1-7.3,5.1-1.9,1.5c2.2-1.5,4.5-2.7,7-3.8c-2.4,1-4.8,2-7.2,3c3.8-1.5,7.6-2.6,11.6-3.2c-2.7,0.4-5.3,0.7-8,1.1     c9.1-1,18.5-0.3,27.6-0.3c18.8,0,37.6,0,56.4,0c43.2,0,86.4,0,129.5,0c10.9,0,22.2-0.9,33.1,0.3c-2.7-0.4-5.3-0.7-8-1.1     c4,0.6,7.9,1.6,11.6,3.2c-2.4-1-4.8-2-7.2-3c2.4,1.1,4.7,2.3,7,3.8c2.8,1.9,2.8,3.7-1.9-1.5c0.8,0.9,2,1.8,2.9,2.7     c0.4,0.4,2.8,2.6,2.6,2.9c0.1-0.2-5.1-7.3-1.6-1.9c1.5,2.2,2.7,4.6,3.7,7c-1-2.4-2-4.8-3-7.2c1.5,3.8,2.6,7.6,3.1,11.6     c-0.4-2.7-0.7-5.3-1.1-8c1.3,12.1,0.3,24.7,0.3,36.8c0,18.4,0,36.9,0,55.3c0,4.3,0,8.7,0,13c0,15.7,13.8,30.7,30,30     c16.3-0.7,30-13.2,30-30c0-33.4,0.7-67,0-100.4c-0.6-25.8-14.2-49.4-36-63c-11.9-7.4-25.9-10.6-39.8-10.7c-12.9,0-25.7,0-38.6,0     c-46.8,0-93.6,0-140.5,0c-16.1,0-32.1,0-48.2,0c-3.2,0-6.4-0.1-9.6,0.1c-25.3,1.6-48.7,15-61.4,37.2c-12.1,21.1-9.9,45-9.9,68.3     c0,21.4,0,42.8,0,64.2c0,1.4,0,2.8,0,4.2c0,15.7,13.8,30.7,30,30C367.3,334.3,381,321.8,381,305L381,305z"/></g></g><g><g><path d="M589.2,538.2c-44.6,0-89.2,0-133.8,0c-6.2,0-12.4,0-18.6,0c10,10,20,20,30,30c0-32.8,0-65.7,0-98.5     c0-4.6,0-9.2,0-13.8c-10,10-20,20-30,30c44.6,0,89.2,0,133.8,0c6.2,0,12.4,0,18.6,0c-10-10-20-20-30-30c0,32.8,0,65.7,0,98.5     c0,4.6,0,9.2,0,13.8c0,15.7,13.8,30.7,30,30c16.3-0.7,30-13.2,30-30c0-32.8,0-65.7,0-98.5c0-4.6,0-9.2,0-13.8     c0-16.2-13.7-30-30-30c-44.6,0-89.2,0-133.8,0c-6.2,0-12.4,0-18.6,0c-16.2,0-30,13.7-30,30c0,32.8,0,65.7,0,98.5     c0,4.6,0,9.2,0,13.8c0,16.2,13.7,30,30,30c44.6,0,89.2,0,133.8,0c6.2,0,12.4,0,18.6,0c15.7,0,30.7-13.8,30-30     C618.5,551.9,606,538.2,589.2,538.2z"/></g></g><g><g><path d="M346,482c-25.2,0-50.4,0-75.6,0c-40.2,0-80.4,0-120.6,0c-9.3,0-18.5,0-27.8,0c-15.7,0-30.7,13.8-30,30     c0.7,16.3,13.2,30,30,30c25.2,0,50.4,0,75.6,0c40.2,0,80.4,0,120.6,0c9.3,0,18.5,0,27.8,0c15.7,0,30.7-13.8,30-30     C375.3,495.7,362.8,482,346,482L346,482z"/></g></g><g><g><path d="M903,482c-25.2,0-50.4,0-75.6,0c-40.2,0-80.4,0-120.6,0c-9.3,0-18.5,0-27.8,0c-15.7,0-30.7,13.8-30,30     c0.7,16.3,13.2,30,30,30c25.2,0,50.4,0,75.6,0c40.2,0,80.4,0,120.6,0c9.3,0,18.5,0,27.8,0c15.7,0,30.7-13.8,30-30     C932.3,495.7,919.8,482,903,482L903,482z"/></g></g></g><text x="0" y="1039" fill="#000000" font-size="5px" font-weight="bold" font-family="'Helvetica Neue', Helvetica, Arial-Unicode, Arial, Sans-serif">Created by shashank singh</text><text x="0" y="1044" fill="#000000" font-size="5px" font-weight="bold" font-family="'Helvetica Neue', Helvetica, Arial-Unicode, Arial, Sans-serif">from the Noun Project</text></svg>